<mxfile host="app.diagrams.net" agent="Mozilla/5.0 (Windows NT 10.0; Win64; x64) AppleWebKit/537.36 (KHTML, like Gecko) Chrome/126.0.0.0 Safari/537.36 Avast/126.0.0.0" version="28.2.0">
  <diagram name="Page-1" id="sURkMQfb3xWqsfC0WqUy">
    <mxGraphModel dx="1255" dy="943" grid="1" gridSize="10" guides="1" tooltips="1" connect="1" arrows="1" fold="1" page="1" pageScale="1" pageWidth="1100" pageHeight="850" math="0" shadow="0">
      <root>
        <mxCell id="0" />
        <mxCell id="1" parent="0" />
        <mxCell id="VEBknGYPYM1EwfaAbbIp-387" value="" style="rounded=0;whiteSpace=wrap;html=1;strokeColor=default;fillColor=light-dark(#FFFFFF,#FFFFFF);movable=1;resizable=1;rotatable=1;deletable=1;editable=1;locked=0;connectable=1;" vertex="1" parent="1">
          <mxGeometry x="20" y="20" width="1050" height="800" as="geometry" />
        </mxCell>
        <mxCell id="VEBknGYPYM1EwfaAbbIp-8" value="" style="edgeStyle=orthogonalEdgeStyle;rounded=0;orthogonalLoop=1;jettySize=auto;html=1;endArrow=none;endFill=0;strokeColor=light-dark(#000000,#000000);fontColor=light-dark(#000000,#000000);" edge="1" parent="1">
          <mxGeometry relative="1" as="geometry">
            <mxPoint x="425" y="135" as="sourcePoint" />
            <mxPoint x="80" y="160" as="targetPoint" />
            <Array as="points">
              <mxPoint x="425" y="135" />
              <mxPoint x="80" y="135" />
              <mxPoint x="80" y="160" />
            </Array>
          </mxGeometry>
        </mxCell>
        <mxCell id="VEBknGYPYM1EwfaAbbIp-1" value="" style="swimlane;whiteSpace=wrap;html=1;startSize=10;fillColor=light-dark(#FFFFFF,#808080);strokeColor=light-dark(#000000,#000000);fontColor=light-dark(#000000,#000000);" vertex="1" parent="1">
          <mxGeometry x="505" y="40" width="80" height="70" as="geometry" />
        </mxCell>
        <mxCell id="VEBknGYPYM1EwfaAbbIp-15" value="Site Map" style="text;html=1;align=center;verticalAlign=middle;whiteSpace=wrap;rounded=0;fontSize=11;strokeColor=none;fontColor=light-dark(#000000,#000000);" vertex="1" parent="VEBknGYPYM1EwfaAbbIp-1">
          <mxGeometry x="10" y="27" width="60" height="30" as="geometry" />
        </mxCell>
        <mxCell id="VEBknGYPYM1EwfaAbbIp-208" value="" style="group;strokeColor=light-dark(#000000,#000000);fontColor=light-dark(#000000,#000000);" vertex="1" connectable="0" parent="VEBknGYPYM1EwfaAbbIp-1">
          <mxGeometry x="5" y="3" width="14" height="4" as="geometry" />
        </mxCell>
        <mxCell id="VEBknGYPYM1EwfaAbbIp-2" value="" style="ellipse;whiteSpace=wrap;html=1;aspect=fixed;strokeColor=light-dark(#000000,#000000);fontColor=light-dark(#000000,#000000);" vertex="1" parent="VEBknGYPYM1EwfaAbbIp-208">
          <mxGeometry width="4" height="4" as="geometry" />
        </mxCell>
        <mxCell id="VEBknGYPYM1EwfaAbbIp-5" value="" style="ellipse;whiteSpace=wrap;html=1;aspect=fixed;strokeColor=light-dark(#000000,#000000);fontColor=light-dark(#000000,#000000);" vertex="1" parent="VEBknGYPYM1EwfaAbbIp-208">
          <mxGeometry x="5" width="4" height="4" as="geometry" />
        </mxCell>
        <mxCell id="VEBknGYPYM1EwfaAbbIp-6" value="" style="ellipse;whiteSpace=wrap;html=1;aspect=fixed;strokeColor=light-dark(#000000,#000000);fontColor=light-dark(#000000,#000000);" vertex="1" parent="VEBknGYPYM1EwfaAbbIp-208">
          <mxGeometry x="10" width="4" height="4" as="geometry" />
        </mxCell>
        <mxCell id="VEBknGYPYM1EwfaAbbIp-213" value="" style="swimlane;whiteSpace=wrap;html=1;startSize=10;fillColor=light-dark(#FFFFFF,#808080);strokeColor=light-dark(#000000,#000000);fontColor=light-dark(#000000,#000000);" vertex="1" parent="1">
          <mxGeometry x="505" y="161" width="80" height="70" as="geometry" />
        </mxCell>
        <mxCell id="VEBknGYPYM1EwfaAbbIp-214" value="Dashboard" style="text;html=1;align=center;verticalAlign=middle;whiteSpace=wrap;rounded=0;fontSize=11;strokeColor=none;fontColor=light-dark(#000000,#000000);" vertex="1" parent="VEBknGYPYM1EwfaAbbIp-213">
          <mxGeometry x="10" y="27" width="60" height="30" as="geometry" />
        </mxCell>
        <mxCell id="VEBknGYPYM1EwfaAbbIp-215" value="" style="group;strokeColor=light-dark(#000000,#000000);fontColor=light-dark(#000000,#000000);" vertex="1" connectable="0" parent="VEBknGYPYM1EwfaAbbIp-213">
          <mxGeometry x="5" y="3" width="14" height="4" as="geometry" />
        </mxCell>
        <mxCell id="VEBknGYPYM1EwfaAbbIp-216" value="" style="ellipse;whiteSpace=wrap;html=1;aspect=fixed;strokeColor=light-dark(#000000,#000000);fontColor=light-dark(#000000,#000000);" vertex="1" parent="VEBknGYPYM1EwfaAbbIp-215">
          <mxGeometry width="4" height="4" as="geometry" />
        </mxCell>
        <mxCell id="VEBknGYPYM1EwfaAbbIp-217" value="" style="ellipse;whiteSpace=wrap;html=1;aspect=fixed;strokeColor=light-dark(#000000,#000000);fontColor=light-dark(#000000,#000000);" vertex="1" parent="VEBknGYPYM1EwfaAbbIp-215">
          <mxGeometry x="5" width="4" height="4" as="geometry" />
        </mxCell>
        <mxCell id="VEBknGYPYM1EwfaAbbIp-218" value="" style="ellipse;whiteSpace=wrap;html=1;aspect=fixed;strokeColor=light-dark(#000000,#000000);fontColor=light-dark(#000000,#000000);" vertex="1" parent="VEBknGYPYM1EwfaAbbIp-215">
          <mxGeometry x="10" width="4" height="4" as="geometry" />
        </mxCell>
        <mxCell id="VEBknGYPYM1EwfaAbbIp-14" value="" style="edgeStyle=elbowEdgeStyle;elbow=horizontal;endArrow=none;html=1;curved=0;rounded=0;endSize=8;startSize=8;endFill=0;entryX=0.394;entryY=0.013;entryDx=0;entryDy=0;entryPerimeter=0;strokeColor=light-dark(#000000,#000000);fontColor=light-dark(#000000,#000000);" edge="1" parent="1">
          <mxGeometry width="50" height="50" relative="1" as="geometry">
            <mxPoint x="425" y="135" as="sourcePoint" />
            <mxPoint x="1001.52" y="160.91000000000008" as="targetPoint" />
            <Array as="points">
              <mxPoint x="1000" y="130" />
            </Array>
          </mxGeometry>
        </mxCell>
        <mxCell id="VEBknGYPYM1EwfaAbbIp-74" value="" style="endArrow=none;html=1;rounded=0;exitX=0.521;exitY=0;exitDx=0;exitDy=0;exitPerimeter=0;strokeColor=light-dark(#000000,#000000);fontColor=light-dark(#000000,#000000);" edge="1" parent="1">
          <mxGeometry width="50" height="50" relative="1" as="geometry">
            <mxPoint x="544.8" y="161" as="sourcePoint" />
            <mxPoint x="544.8" y="135" as="targetPoint" />
          </mxGeometry>
        </mxCell>
        <mxCell id="VEBknGYPYM1EwfaAbbIp-75" value="" style="endArrow=none;html=1;rounded=0;exitX=0.521;exitY=0;exitDx=0;exitDy=0;exitPerimeter=0;strokeColor=light-dark(#000000,#000000);fontColor=light-dark(#000000,#000000);" edge="1" parent="1">
          <mxGeometry width="50" height="50" relative="1" as="geometry">
            <mxPoint x="660.8" y="161" as="sourcePoint" />
            <mxPoint x="660.8" y="135" as="targetPoint" />
          </mxGeometry>
        </mxCell>
        <mxCell id="VEBknGYPYM1EwfaAbbIp-76" value="" style="endArrow=none;html=1;rounded=0;exitX=0.521;exitY=0;exitDx=0;exitDy=0;exitPerimeter=0;strokeColor=light-dark(#000000,#000000);fontColor=light-dark(#000000,#000000);" edge="1" parent="1">
          <mxGeometry width="50" height="50" relative="1" as="geometry">
            <mxPoint x="772.8" y="160" as="sourcePoint" />
            <mxPoint x="772.8" y="134" as="targetPoint" />
          </mxGeometry>
        </mxCell>
        <mxCell id="VEBknGYPYM1EwfaAbbIp-86" value="" style="endArrow=none;html=1;rounded=0;exitX=0.521;exitY=0;exitDx=0;exitDy=0;exitPerimeter=0;strokeColor=light-dark(#000000,#000000);fontColor=light-dark(#000000,#000000);" edge="1" parent="1">
          <mxGeometry width="50" height="50" relative="1" as="geometry">
            <mxPoint x="544.8599999999999" y="136" as="sourcePoint" />
            <mxPoint x="544.8599999999999" y="110" as="targetPoint" />
          </mxGeometry>
        </mxCell>
        <mxCell id="VEBknGYPYM1EwfaAbbIp-79" value="" style="endArrow=none;html=1;rounded=0;exitX=0.521;exitY=0;exitDx=0;exitDy=0;exitPerimeter=0;strokeColor=light-dark(#000000,#000000);fontColor=light-dark(#000000,#000000);" edge="1" parent="1">
          <mxGeometry width="50" height="50" relative="1" as="geometry">
            <mxPoint x="886.8" y="161" as="sourcePoint" />
            <mxPoint x="886.8" y="135" as="targetPoint" />
          </mxGeometry>
        </mxCell>
        <mxCell id="VEBknGYPYM1EwfaAbbIp-77" value="" style="endArrow=none;html=1;rounded=0;exitX=0.521;exitY=0;exitDx=0;exitDy=0;exitPerimeter=0;strokeColor=light-dark(#000000,#000000);fontColor=light-dark(#000000,#000000);" edge="1" parent="1">
          <mxGeometry width="50" height="50" relative="1" as="geometry">
            <mxPoint x="424.93" y="160" as="sourcePoint" />
            <mxPoint x="424.93" y="134" as="targetPoint" />
          </mxGeometry>
        </mxCell>
        <mxCell id="VEBknGYPYM1EwfaAbbIp-78" value="" style="endArrow=none;html=1;rounded=0;exitX=0.521;exitY=0;exitDx=0;exitDy=0;exitPerimeter=0;strokeColor=light-dark(#000000,#000000);fontColor=light-dark(#000000,#000000);" edge="1" parent="1">
          <mxGeometry width="50" height="50" relative="1" as="geometry">
            <mxPoint x="309.93" y="161" as="sourcePoint" />
            <mxPoint x="309.93" y="135" as="targetPoint" />
          </mxGeometry>
        </mxCell>
        <mxCell id="VEBknGYPYM1EwfaAbbIp-110" value="" style="group;strokeColor=none;fontColor=light-dark(#000000,#000000);container=0;" vertex="1" connectable="0" parent="1">
          <mxGeometry x="158" y="423" width="81" height="96" as="geometry" />
        </mxCell>
        <mxCell id="VEBknGYPYM1EwfaAbbIp-317" value="" style="group;strokeColor=none;fontColor=light-dark(#000000,#000000);container=0;" vertex="1" connectable="0" parent="1">
          <mxGeometry x="621" y="423.5" width="81" height="96" as="geometry" />
        </mxCell>
        <mxCell id="VEBknGYPYM1EwfaAbbIp-145" value="" style="group;strokeColor=none;fontColor=light-dark(#000000,#000000);container=0;" vertex="1" connectable="0" parent="1">
          <mxGeometry x="505" y="422" width="80" height="96" as="geometry" />
        </mxCell>
        <mxCell id="VEBknGYPYM1EwfaAbbIp-219" value="" style="swimlane;whiteSpace=wrap;html=1;startSize=10;fillColor=light-dark(#FFFFFF,#808080);strokeColor=light-dark(#000000,#000000);fontColor=light-dark(#000000,#000000);" vertex="1" parent="1">
          <mxGeometry x="387" y="161" width="80" height="70" as="geometry" />
        </mxCell>
        <mxCell id="VEBknGYPYM1EwfaAbbIp-221" value="" style="group;strokeColor=light-dark(#000000,#000000);fontColor=light-dark(#000000,#000000);" vertex="1" connectable="0" parent="VEBknGYPYM1EwfaAbbIp-219">
          <mxGeometry x="5" y="3" width="14" height="4" as="geometry" />
        </mxCell>
        <mxCell id="VEBknGYPYM1EwfaAbbIp-222" value="" style="ellipse;whiteSpace=wrap;html=1;aspect=fixed;strokeColor=light-dark(#000000,#000000);fontColor=light-dark(#000000,#000000);" vertex="1" parent="VEBknGYPYM1EwfaAbbIp-221">
          <mxGeometry width="4" height="4" as="geometry" />
        </mxCell>
        <mxCell id="VEBknGYPYM1EwfaAbbIp-223" value="" style="ellipse;whiteSpace=wrap;html=1;aspect=fixed;strokeColor=light-dark(#000000,#000000);fontColor=light-dark(#000000,#000000);" vertex="1" parent="VEBknGYPYM1EwfaAbbIp-221">
          <mxGeometry x="5" width="4" height="4" as="geometry" />
        </mxCell>
        <mxCell id="VEBknGYPYM1EwfaAbbIp-224" value="" style="ellipse;whiteSpace=wrap;html=1;aspect=fixed;strokeColor=light-dark(#000000,#000000);fontColor=light-dark(#000000,#000000);" vertex="1" parent="VEBknGYPYM1EwfaAbbIp-221">
          <mxGeometry x="10" width="4" height="4" as="geometry" />
        </mxCell>
        <mxCell id="VEBknGYPYM1EwfaAbbIp-51" value="Book Appointment" style="text;html=1;align=center;verticalAlign=middle;whiteSpace=wrap;rounded=0;fontSize=11;strokeColor=none;fontColor=light-dark(#000000,#000000);" vertex="1" parent="VEBknGYPYM1EwfaAbbIp-219">
          <mxGeometry x="10" y="26" width="60" height="30" as="geometry" />
        </mxCell>
        <mxCell id="VEBknGYPYM1EwfaAbbIp-225" value="" style="swimlane;whiteSpace=wrap;html=1;startSize=10;fillColor=light-dark(#FFFFFF,#808080);strokeColor=light-dark(#000000,#000000);fontColor=light-dark(#000000,#000000);" vertex="1" parent="1">
          <mxGeometry x="159" y="353" width="80" height="70" as="geometry" />
        </mxCell>
        <mxCell id="VEBknGYPYM1EwfaAbbIp-226" value="" style="group;strokeColor=light-dark(#000000,#000000);fontColor=light-dark(#000000,#000000);" vertex="1" connectable="0" parent="VEBknGYPYM1EwfaAbbIp-225">
          <mxGeometry x="5" y="3" width="14" height="4" as="geometry" />
        </mxCell>
        <mxCell id="VEBknGYPYM1EwfaAbbIp-227" value="" style="ellipse;whiteSpace=wrap;html=1;aspect=fixed;strokeColor=light-dark(#000000,#000000);fontColor=light-dark(#000000,#000000);" vertex="1" parent="VEBknGYPYM1EwfaAbbIp-226">
          <mxGeometry width="4" height="4" as="geometry" />
        </mxCell>
        <mxCell id="VEBknGYPYM1EwfaAbbIp-228" value="" style="ellipse;whiteSpace=wrap;html=1;aspect=fixed;strokeColor=light-dark(#000000,#000000);fontColor=light-dark(#000000,#000000);" vertex="1" parent="VEBknGYPYM1EwfaAbbIp-226">
          <mxGeometry x="5" width="4" height="4" as="geometry" />
        </mxCell>
        <mxCell id="VEBknGYPYM1EwfaAbbIp-229" value="" style="ellipse;whiteSpace=wrap;html=1;aspect=fixed;strokeColor=light-dark(#000000,#000000);fontColor=light-dark(#000000,#000000);" vertex="1" parent="VEBknGYPYM1EwfaAbbIp-226">
          <mxGeometry x="10" width="4" height="4" as="geometry" />
        </mxCell>
        <mxCell id="VEBknGYPYM1EwfaAbbIp-108" value="Yoga and Meditation Classes" style="text;html=1;align=center;verticalAlign=middle;whiteSpace=wrap;rounded=0;fontSize=11;strokeColor=none;fontColor=light-dark(#000000,#000000);" vertex="1" parent="VEBknGYPYM1EwfaAbbIp-225">
          <mxGeometry x="10" y="20" width="60" height="30" as="geometry" />
        </mxCell>
        <mxCell id="VEBknGYPYM1EwfaAbbIp-291" value="" style="swimlane;whiteSpace=wrap;html=1;startSize=10;fillColor=light-dark(#FFFFFF,#808080);strokeColor=light-dark(#000000,#000000);fontColor=light-dark(#000000,#000000);" vertex="1" parent="1">
          <mxGeometry x="622" y="353.5" width="80" height="70" as="geometry" />
        </mxCell>
        <mxCell id="VEBknGYPYM1EwfaAbbIp-292" value="" style="group;strokeColor=light-dark(#000000,#000000);fontColor=light-dark(#000000,#000000);" vertex="1" connectable="0" parent="VEBknGYPYM1EwfaAbbIp-291">
          <mxGeometry x="5" y="3" width="14" height="4" as="geometry" />
        </mxCell>
        <mxCell id="VEBknGYPYM1EwfaAbbIp-293" value="" style="ellipse;whiteSpace=wrap;html=1;aspect=fixed;strokeColor=light-dark(#000000,#000000);fontColor=light-dark(#000000,#000000);" vertex="1" parent="VEBknGYPYM1EwfaAbbIp-292">
          <mxGeometry width="4" height="4" as="geometry" />
        </mxCell>
        <mxCell id="VEBknGYPYM1EwfaAbbIp-294" value="" style="ellipse;whiteSpace=wrap;html=1;aspect=fixed;strokeColor=light-dark(#000000,#000000);fontColor=light-dark(#000000,#000000);" vertex="1" parent="VEBknGYPYM1EwfaAbbIp-292">
          <mxGeometry x="5" width="4" height="4" as="geometry" />
        </mxCell>
        <mxCell id="VEBknGYPYM1EwfaAbbIp-295" value="" style="ellipse;whiteSpace=wrap;html=1;aspect=fixed;strokeColor=light-dark(#000000,#000000);fontColor=light-dark(#000000,#000000);" vertex="1" parent="VEBknGYPYM1EwfaAbbIp-292">
          <mxGeometry x="10" width="4" height="4" as="geometry" />
        </mxCell>
        <mxCell id="VEBknGYPYM1EwfaAbbIp-296" value="Yoga and Meditation Classes" style="text;html=1;align=center;verticalAlign=middle;whiteSpace=wrap;rounded=0;fontSize=11;strokeColor=none;fontColor=light-dark(#000000,#000000);" vertex="1" parent="VEBknGYPYM1EwfaAbbIp-291">
          <mxGeometry x="10" y="20" width="60" height="30" as="geometry" />
        </mxCell>
        <mxCell id="VEBknGYPYM1EwfaAbbIp-375" value="" style="swimlane;whiteSpace=wrap;html=1;startSize=10;fillColor=light-dark(#FFFFFF,#808080);strokeColor=light-dark(#000000,#000000);fontColor=light-dark(#000000,#000000);" vertex="1" parent="1">
          <mxGeometry x="962" y="354.5" width="80" height="70" as="geometry" />
        </mxCell>
        <mxCell id="VEBknGYPYM1EwfaAbbIp-376" value="" style="group;strokeColor=light-dark(#000000,#000000);fontColor=light-dark(#000000,#000000);" vertex="1" connectable="0" parent="VEBknGYPYM1EwfaAbbIp-375">
          <mxGeometry x="5" y="3" width="14" height="4" as="geometry" />
        </mxCell>
        <mxCell id="VEBknGYPYM1EwfaAbbIp-377" value="" style="ellipse;whiteSpace=wrap;html=1;aspect=fixed;strokeColor=light-dark(#000000,#000000);fontColor=light-dark(#000000,#000000);" vertex="1" parent="VEBknGYPYM1EwfaAbbIp-376">
          <mxGeometry width="4" height="4" as="geometry" />
        </mxCell>
        <mxCell id="VEBknGYPYM1EwfaAbbIp-378" value="" style="ellipse;whiteSpace=wrap;html=1;aspect=fixed;strokeColor=light-dark(#000000,#000000);fontColor=light-dark(#000000,#000000);" vertex="1" parent="VEBknGYPYM1EwfaAbbIp-376">
          <mxGeometry x="5" width="4" height="4" as="geometry" />
        </mxCell>
        <mxCell id="VEBknGYPYM1EwfaAbbIp-379" value="" style="ellipse;whiteSpace=wrap;html=1;aspect=fixed;strokeColor=light-dark(#000000,#000000);fontColor=light-dark(#000000,#000000);" vertex="1" parent="VEBknGYPYM1EwfaAbbIp-376">
          <mxGeometry x="10" width="4" height="4" as="geometry" />
        </mxCell>
        <mxCell id="VEBknGYPYM1EwfaAbbIp-192" value="Employee Login" style="text;html=1;align=center;verticalAlign=middle;whiteSpace=wrap;rounded=0;fontSize=11;strokeColor=none;fontColor=light-dark(#000000,#000000);" vertex="1" parent="VEBknGYPYM1EwfaAbbIp-375">
          <mxGeometry x="10" y="23.5" width="60" height="30" as="geometry" />
        </mxCell>
        <mxCell id="VEBknGYPYM1EwfaAbbIp-255" value="" style="swimlane;whiteSpace=wrap;html=1;startSize=10;fillColor=light-dark(#FFFFFF,#808080);strokeColor=light-dark(#000000,#000000);fontColor=light-dark(#000000,#000000);" vertex="1" parent="1">
          <mxGeometry x="159" y="545" width="80" height="70" as="geometry" />
        </mxCell>
        <mxCell id="VEBknGYPYM1EwfaAbbIp-256" value="" style="group;strokeColor=light-dark(#000000,#000000);fontColor=light-dark(#000000,#000000);" vertex="1" connectable="0" parent="VEBknGYPYM1EwfaAbbIp-255">
          <mxGeometry x="5" y="3" width="14" height="4" as="geometry" />
        </mxCell>
        <mxCell id="VEBknGYPYM1EwfaAbbIp-257" value="" style="ellipse;whiteSpace=wrap;html=1;aspect=fixed;strokeColor=light-dark(#000000,#000000);fontColor=light-dark(#000000,#000000);" vertex="1" parent="VEBknGYPYM1EwfaAbbIp-256">
          <mxGeometry width="4" height="4" as="geometry" />
        </mxCell>
        <mxCell id="VEBknGYPYM1EwfaAbbIp-258" value="" style="ellipse;whiteSpace=wrap;html=1;aspect=fixed;strokeColor=light-dark(#000000,#000000);fontColor=light-dark(#000000,#000000);" vertex="1" parent="VEBknGYPYM1EwfaAbbIp-256">
          <mxGeometry x="5" width="4" height="4" as="geometry" />
        </mxCell>
        <mxCell id="VEBknGYPYM1EwfaAbbIp-259" value="" style="ellipse;whiteSpace=wrap;html=1;aspect=fixed;strokeColor=light-dark(#000000,#000000);fontColor=light-dark(#000000,#000000);" vertex="1" parent="VEBknGYPYM1EwfaAbbIp-256">
          <mxGeometry x="10" width="4" height="4" as="geometry" />
        </mxCell>
        <mxCell id="VEBknGYPYM1EwfaAbbIp-122" value="Physiotherapy&amp;nbsp;" style="text;html=1;align=center;verticalAlign=middle;whiteSpace=wrap;rounded=0;fontSize=11;strokeColor=none;fontColor=light-dark(#000000,#000000);" vertex="1" parent="VEBknGYPYM1EwfaAbbIp-255">
          <mxGeometry x="10" y="26" width="60" height="30" as="geometry" />
        </mxCell>
        <mxCell id="VEBknGYPYM1EwfaAbbIp-303" value="" style="swimlane;whiteSpace=wrap;html=1;startSize=10;fillColor=light-dark(#FFFFFF,#808080);strokeColor=light-dark(#000000,#000000);fontColor=light-dark(#000000,#000000);" vertex="1" parent="1">
          <mxGeometry x="622" y="545.5" width="80" height="70" as="geometry" />
        </mxCell>
        <mxCell id="VEBknGYPYM1EwfaAbbIp-304" value="" style="group;strokeColor=light-dark(#000000,#000000);fontColor=light-dark(#000000,#000000);" vertex="1" connectable="0" parent="VEBknGYPYM1EwfaAbbIp-303">
          <mxGeometry x="5" y="3" width="14" height="4" as="geometry" />
        </mxCell>
        <mxCell id="VEBknGYPYM1EwfaAbbIp-305" value="" style="ellipse;whiteSpace=wrap;html=1;aspect=fixed;strokeColor=light-dark(#000000,#000000);fontColor=light-dark(#000000,#000000);" vertex="1" parent="VEBknGYPYM1EwfaAbbIp-304">
          <mxGeometry width="4" height="4" as="geometry" />
        </mxCell>
        <mxCell id="VEBknGYPYM1EwfaAbbIp-306" value="" style="ellipse;whiteSpace=wrap;html=1;aspect=fixed;strokeColor=light-dark(#000000,#000000);fontColor=light-dark(#000000,#000000);" vertex="1" parent="VEBknGYPYM1EwfaAbbIp-304">
          <mxGeometry x="5" width="4" height="4" as="geometry" />
        </mxCell>
        <mxCell id="VEBknGYPYM1EwfaAbbIp-307" value="" style="ellipse;whiteSpace=wrap;html=1;aspect=fixed;strokeColor=light-dark(#000000,#000000);fontColor=light-dark(#000000,#000000);" vertex="1" parent="VEBknGYPYM1EwfaAbbIp-304">
          <mxGeometry x="10" width="4" height="4" as="geometry" />
        </mxCell>
        <mxCell id="VEBknGYPYM1EwfaAbbIp-308" value="Physiotherapy&amp;nbsp;" style="text;html=1;align=center;verticalAlign=middle;whiteSpace=wrap;rounded=0;fontSize=11;strokeColor=none;fontColor=light-dark(#000000,#000000);" vertex="1" parent="VEBknGYPYM1EwfaAbbIp-303">
          <mxGeometry x="10" y="26" width="60" height="30" as="geometry" />
        </mxCell>
        <mxCell id="VEBknGYPYM1EwfaAbbIp-261" value="" style="swimlane;whiteSpace=wrap;html=1;startSize=10;fillColor=light-dark(#FFFFFF,#808080);strokeColor=light-dark(#000000,#000000);fontColor=light-dark(#000000,#000000);" vertex="1" parent="1">
          <mxGeometry x="159" y="640" width="80" height="70" as="geometry" />
        </mxCell>
        <mxCell id="VEBknGYPYM1EwfaAbbIp-262" value="" style="group;strokeColor=light-dark(#000000,#000000);fontColor=light-dark(#000000,#000000);" vertex="1" connectable="0" parent="VEBknGYPYM1EwfaAbbIp-261">
          <mxGeometry x="5" y="3" width="14" height="4" as="geometry" />
        </mxCell>
        <mxCell id="VEBknGYPYM1EwfaAbbIp-263" value="" style="ellipse;whiteSpace=wrap;html=1;aspect=fixed;strokeColor=light-dark(#000000,#000000);fontColor=light-dark(#000000,#000000);" vertex="1" parent="VEBknGYPYM1EwfaAbbIp-262">
          <mxGeometry width="4" height="4" as="geometry" />
        </mxCell>
        <mxCell id="VEBknGYPYM1EwfaAbbIp-264" value="" style="ellipse;whiteSpace=wrap;html=1;aspect=fixed;strokeColor=light-dark(#000000,#000000);fontColor=light-dark(#000000,#000000);" vertex="1" parent="VEBknGYPYM1EwfaAbbIp-262">
          <mxGeometry x="5" width="4" height="4" as="geometry" />
        </mxCell>
        <mxCell id="VEBknGYPYM1EwfaAbbIp-265" value="" style="ellipse;whiteSpace=wrap;html=1;aspect=fixed;strokeColor=light-dark(#000000,#000000);fontColor=light-dark(#000000,#000000);" vertex="1" parent="VEBknGYPYM1EwfaAbbIp-262">
          <mxGeometry x="10" width="4" height="4" as="geometry" />
        </mxCell>
        <mxCell id="VEBknGYPYM1EwfaAbbIp-136" value="Massage Therapy" style="text;html=1;align=center;verticalAlign=middle;whiteSpace=wrap;rounded=0;fontSize=11;strokeColor=none;fontColor=light-dark(#000000,#000000);" vertex="1" parent="VEBknGYPYM1EwfaAbbIp-261">
          <mxGeometry x="10" y="20" width="60" height="30" as="geometry" />
        </mxCell>
        <mxCell id="VEBknGYPYM1EwfaAbbIp-309" value="" style="swimlane;whiteSpace=wrap;html=1;startSize=10;fillColor=light-dark(#FFFFFF,#808080);strokeColor=light-dark(#000000,#000000);fontColor=light-dark(#000000,#000000);" vertex="1" parent="1">
          <mxGeometry x="622" y="640.5" width="80" height="70" as="geometry" />
        </mxCell>
        <mxCell id="VEBknGYPYM1EwfaAbbIp-310" value="" style="group;strokeColor=light-dark(#000000,#000000);fontColor=light-dark(#000000,#000000);" vertex="1" connectable="0" parent="VEBknGYPYM1EwfaAbbIp-309">
          <mxGeometry x="5" y="3" width="14" height="4" as="geometry" />
        </mxCell>
        <mxCell id="VEBknGYPYM1EwfaAbbIp-311" value="" style="ellipse;whiteSpace=wrap;html=1;aspect=fixed;strokeColor=light-dark(#000000,#000000);fontColor=light-dark(#000000,#000000);" vertex="1" parent="VEBknGYPYM1EwfaAbbIp-310">
          <mxGeometry width="4" height="4" as="geometry" />
        </mxCell>
        <mxCell id="VEBknGYPYM1EwfaAbbIp-312" value="" style="ellipse;whiteSpace=wrap;html=1;aspect=fixed;strokeColor=light-dark(#000000,#000000);fontColor=light-dark(#000000,#000000);" vertex="1" parent="VEBknGYPYM1EwfaAbbIp-310">
          <mxGeometry x="5" width="4" height="4" as="geometry" />
        </mxCell>
        <mxCell id="VEBknGYPYM1EwfaAbbIp-313" value="" style="ellipse;whiteSpace=wrap;html=1;aspect=fixed;strokeColor=light-dark(#000000,#000000);fontColor=light-dark(#000000,#000000);" vertex="1" parent="VEBknGYPYM1EwfaAbbIp-310">
          <mxGeometry x="10" width="4" height="4" as="geometry" />
        </mxCell>
        <mxCell id="VEBknGYPYM1EwfaAbbIp-314" value="Massage Therapy" style="text;html=1;align=center;verticalAlign=middle;whiteSpace=wrap;rounded=0;fontSize=11;strokeColor=none;fontColor=light-dark(#000000,#000000);" vertex="1" parent="VEBknGYPYM1EwfaAbbIp-309">
          <mxGeometry x="10" y="20" width="60" height="30" as="geometry" />
        </mxCell>
        <mxCell id="VEBknGYPYM1EwfaAbbIp-267" value="" style="swimlane;whiteSpace=wrap;html=1;startSize=10;fillColor=light-dark(#FFFFFF,#808080);strokeColor=light-dark(#000000,#000000);fontColor=light-dark(#000000,#000000);" vertex="1" parent="1">
          <mxGeometry x="733" y="161" width="80" height="70" as="geometry" />
        </mxCell>
        <mxCell id="VEBknGYPYM1EwfaAbbIp-268" value="" style="group;strokeColor=light-dark(#000000,#000000);fontColor=light-dark(#000000,#000000);" vertex="1" connectable="0" parent="VEBknGYPYM1EwfaAbbIp-267">
          <mxGeometry x="5" y="3" width="14" height="4" as="geometry" />
        </mxCell>
        <mxCell id="VEBknGYPYM1EwfaAbbIp-269" value="" style="ellipse;whiteSpace=wrap;html=1;aspect=fixed;strokeColor=light-dark(#000000,#000000);fontColor=light-dark(#000000,#000000);" vertex="1" parent="VEBknGYPYM1EwfaAbbIp-268">
          <mxGeometry width="4" height="4" as="geometry" />
        </mxCell>
        <mxCell id="VEBknGYPYM1EwfaAbbIp-270" value="" style="ellipse;whiteSpace=wrap;html=1;aspect=fixed;strokeColor=light-dark(#000000,#000000);fontColor=light-dark(#000000,#000000);" vertex="1" parent="VEBknGYPYM1EwfaAbbIp-268">
          <mxGeometry x="5" width="4" height="4" as="geometry" />
        </mxCell>
        <mxCell id="VEBknGYPYM1EwfaAbbIp-271" value="" style="ellipse;whiteSpace=wrap;html=1;aspect=fixed;strokeColor=light-dark(#000000,#000000);fontColor=light-dark(#000000,#000000);" vertex="1" parent="VEBknGYPYM1EwfaAbbIp-268">
          <mxGeometry x="10" width="4" height="4" as="geometry" />
        </mxCell>
        <mxCell id="VEBknGYPYM1EwfaAbbIp-67" value="About" style="text;html=1;align=center;verticalAlign=middle;whiteSpace=wrap;rounded=0;fontSize=11;strokeColor=none;fontColor=light-dark(#000000,#000000);" vertex="1" parent="VEBknGYPYM1EwfaAbbIp-267">
          <mxGeometry x="10" y="20" width="60" height="30" as="geometry" />
        </mxCell>
        <mxCell id="VEBknGYPYM1EwfaAbbIp-231" value="" style="swimlane;whiteSpace=wrap;html=1;startSize=10;fillColor=light-dark(#FFFFFF,#808080);strokeColor=light-dark(#000000,#000000);fontColor=light-dark(#000000,#000000);" vertex="1" parent="1">
          <mxGeometry x="159" y="257" width="80" height="70" as="geometry" />
        </mxCell>
        <mxCell id="VEBknGYPYM1EwfaAbbIp-232" value="" style="group;strokeColor=light-dark(#000000,#000000);fontColor=light-dark(#000000,#000000);" vertex="1" connectable="0" parent="VEBknGYPYM1EwfaAbbIp-231">
          <mxGeometry x="5" y="3" width="14" height="4" as="geometry" />
        </mxCell>
        <mxCell id="VEBknGYPYM1EwfaAbbIp-233" value="" style="ellipse;whiteSpace=wrap;html=1;aspect=fixed;strokeColor=light-dark(#000000,#000000);fontColor=light-dark(#000000,#000000);" vertex="1" parent="VEBknGYPYM1EwfaAbbIp-232">
          <mxGeometry width="4" height="4" as="geometry" />
        </mxCell>
        <mxCell id="VEBknGYPYM1EwfaAbbIp-234" value="" style="ellipse;whiteSpace=wrap;html=1;aspect=fixed;strokeColor=light-dark(#000000,#000000);fontColor=light-dark(#000000,#000000);" vertex="1" parent="VEBknGYPYM1EwfaAbbIp-232">
          <mxGeometry x="5" width="4" height="4" as="geometry" />
        </mxCell>
        <mxCell id="VEBknGYPYM1EwfaAbbIp-235" value="" style="ellipse;whiteSpace=wrap;html=1;aspect=fixed;strokeColor=light-dark(#000000,#000000);fontColor=light-dark(#000000,#000000);" vertex="1" parent="VEBknGYPYM1EwfaAbbIp-232">
          <mxGeometry x="10" width="4" height="4" as="geometry" />
        </mxCell>
        <mxCell id="VEBknGYPYM1EwfaAbbIp-101" value="Ayurvedic Therapy" style="text;html=1;align=center;verticalAlign=middle;whiteSpace=wrap;rounded=0;fontSize=11;strokeColor=none;fontColor=light-dark(#000000,#000000);" vertex="1" parent="VEBknGYPYM1EwfaAbbIp-231">
          <mxGeometry x="10" y="30" width="60" height="30" as="geometry" />
        </mxCell>
        <mxCell id="VEBknGYPYM1EwfaAbbIp-297" value="" style="swimlane;whiteSpace=wrap;html=1;startSize=10;fillColor=light-dark(#FFFFFF,#808080);strokeColor=light-dark(#000000,#000000);fontColor=light-dark(#000000,#000000);" vertex="1" parent="1">
          <mxGeometry x="622" y="257.5" width="80" height="70" as="geometry" />
        </mxCell>
        <mxCell id="VEBknGYPYM1EwfaAbbIp-298" value="" style="group;strokeColor=light-dark(#000000,#000000);fontColor=light-dark(#000000,#000000);" vertex="1" connectable="0" parent="VEBknGYPYM1EwfaAbbIp-297">
          <mxGeometry x="5" y="3" width="14" height="4" as="geometry" />
        </mxCell>
        <mxCell id="VEBknGYPYM1EwfaAbbIp-299" value="" style="ellipse;whiteSpace=wrap;html=1;aspect=fixed;strokeColor=light-dark(#000000,#000000);fontColor=light-dark(#000000,#000000);" vertex="1" parent="VEBknGYPYM1EwfaAbbIp-298">
          <mxGeometry width="4" height="4" as="geometry" />
        </mxCell>
        <mxCell id="VEBknGYPYM1EwfaAbbIp-300" value="" style="ellipse;whiteSpace=wrap;html=1;aspect=fixed;strokeColor=light-dark(#000000,#000000);fontColor=light-dark(#000000,#000000);" vertex="1" parent="VEBknGYPYM1EwfaAbbIp-298">
          <mxGeometry x="5" width="4" height="4" as="geometry" />
        </mxCell>
        <mxCell id="VEBknGYPYM1EwfaAbbIp-301" value="" style="ellipse;whiteSpace=wrap;html=1;aspect=fixed;strokeColor=light-dark(#000000,#000000);fontColor=light-dark(#000000,#000000);" vertex="1" parent="VEBknGYPYM1EwfaAbbIp-298">
          <mxGeometry x="10" width="4" height="4" as="geometry" />
        </mxCell>
        <mxCell id="VEBknGYPYM1EwfaAbbIp-302" value="Ayurvedic Therapy" style="text;html=1;align=center;verticalAlign=middle;whiteSpace=wrap;rounded=0;fontSize=11;strokeColor=none;fontColor=light-dark(#000000,#000000);" vertex="1" parent="VEBknGYPYM1EwfaAbbIp-297">
          <mxGeometry x="10" y="30" width="60" height="30" as="geometry" />
        </mxCell>
        <mxCell id="VEBknGYPYM1EwfaAbbIp-368" value="" style="swimlane;whiteSpace=wrap;html=1;startSize=10;fillColor=light-dark(#FFFFFF,#808080);strokeColor=light-dark(#000000,#000000);fontColor=light-dark(#000000,#000000);" vertex="1" parent="1">
          <mxGeometry x="962" y="258.5" width="80" height="70" as="geometry" />
        </mxCell>
        <mxCell id="VEBknGYPYM1EwfaAbbIp-369" value="" style="group;strokeColor=light-dark(#000000,#000000);fontColor=light-dark(#000000,#000000);" vertex="1" connectable="0" parent="VEBknGYPYM1EwfaAbbIp-368">
          <mxGeometry x="5" y="3" width="14" height="4" as="geometry" />
        </mxCell>
        <mxCell id="VEBknGYPYM1EwfaAbbIp-370" value="" style="ellipse;whiteSpace=wrap;html=1;aspect=fixed;strokeColor=light-dark(#000000,#000000);fontColor=light-dark(#000000,#000000);" vertex="1" parent="VEBknGYPYM1EwfaAbbIp-369">
          <mxGeometry width="4" height="4" as="geometry" />
        </mxCell>
        <mxCell id="VEBknGYPYM1EwfaAbbIp-371" value="" style="ellipse;whiteSpace=wrap;html=1;aspect=fixed;strokeColor=light-dark(#000000,#000000);fontColor=light-dark(#000000,#000000);" vertex="1" parent="VEBknGYPYM1EwfaAbbIp-369">
          <mxGeometry x="5" width="4" height="4" as="geometry" />
        </mxCell>
        <mxCell id="VEBknGYPYM1EwfaAbbIp-372" value="" style="ellipse;whiteSpace=wrap;html=1;aspect=fixed;strokeColor=light-dark(#000000,#000000);fontColor=light-dark(#000000,#000000);" vertex="1" parent="VEBknGYPYM1EwfaAbbIp-369">
          <mxGeometry x="10" width="4" height="4" as="geometry" />
        </mxCell>
        <mxCell id="VEBknGYPYM1EwfaAbbIp-199" value="Register for New Patient" style="text;html=1;align=center;verticalAlign=middle;whiteSpace=wrap;rounded=0;fontSize=11;strokeColor=none;fontColor=light-dark(#000000,#000000);" vertex="1" parent="VEBknGYPYM1EwfaAbbIp-368">
          <mxGeometry x="12" y="20.5" width="60" height="30" as="geometry" />
        </mxCell>
        <mxCell id="VEBknGYPYM1EwfaAbbIp-354" value="" style="swimlane;whiteSpace=wrap;html=1;startSize=10;fillColor=light-dark(#FFFFFF,#808080);strokeColor=light-dark(#000000,#000000);fontColor=light-dark(#000000,#000000);" vertex="1" parent="1">
          <mxGeometry x="849" y="256.5" width="80" height="70" as="geometry" />
        </mxCell>
        <mxCell id="VEBknGYPYM1EwfaAbbIp-355" value="" style="group;strokeColor=light-dark(#000000,#000000);fontColor=light-dark(#000000,#000000);" vertex="1" connectable="0" parent="VEBknGYPYM1EwfaAbbIp-354">
          <mxGeometry x="5" y="3" width="14" height="4" as="geometry" />
        </mxCell>
        <mxCell id="VEBknGYPYM1EwfaAbbIp-356" value="" style="ellipse;whiteSpace=wrap;html=1;aspect=fixed;strokeColor=light-dark(#000000,#000000);fontColor=light-dark(#000000,#000000);" vertex="1" parent="VEBknGYPYM1EwfaAbbIp-355">
          <mxGeometry width="4" height="4" as="geometry" />
        </mxCell>
        <mxCell id="VEBknGYPYM1EwfaAbbIp-357" value="" style="ellipse;whiteSpace=wrap;html=1;aspect=fixed;strokeColor=light-dark(#000000,#000000);fontColor=light-dark(#000000,#000000);" vertex="1" parent="VEBknGYPYM1EwfaAbbIp-355">
          <mxGeometry x="5" width="4" height="4" as="geometry" />
        </mxCell>
        <mxCell id="VEBknGYPYM1EwfaAbbIp-358" value="" style="ellipse;whiteSpace=wrap;html=1;aspect=fixed;strokeColor=light-dark(#000000,#000000);fontColor=light-dark(#000000,#000000);" vertex="1" parent="VEBknGYPYM1EwfaAbbIp-355">
          <mxGeometry x="10" width="4" height="4" as="geometry" />
        </mxCell>
        <mxCell id="VEBknGYPYM1EwfaAbbIp-206" value="Contact Details &amp;amp; Location" style="text;html=1;align=center;verticalAlign=middle;whiteSpace=wrap;rounded=0;fontSize=11;strokeColor=none;fontColor=light-dark(#000000,#000000);" vertex="1" parent="VEBknGYPYM1EwfaAbbIp-354">
          <mxGeometry x="10" y="22.5" width="60" height="30" as="geometry" />
        </mxCell>
        <mxCell id="VEBknGYPYM1EwfaAbbIp-237" value="" style="swimlane;whiteSpace=wrap;html=1;startSize=10;fillColor=light-dark(#FFFFFF,#808080);strokeColor=light-dark(#000000,#000000);fontColor=light-dark(#000000,#000000);" vertex="1" parent="1">
          <mxGeometry x="159" y="160" width="80" height="70" as="geometry" />
        </mxCell>
        <mxCell id="VEBknGYPYM1EwfaAbbIp-238" value="" style="group;strokeColor=light-dark(#000000,#000000);fontColor=light-dark(#000000,#000000);" vertex="1" connectable="0" parent="VEBknGYPYM1EwfaAbbIp-237">
          <mxGeometry x="5" y="3" width="14" height="4" as="geometry" />
        </mxCell>
        <mxCell id="VEBknGYPYM1EwfaAbbIp-239" value="" style="ellipse;whiteSpace=wrap;html=1;aspect=fixed;strokeColor=light-dark(#000000,#000000);fontColor=light-dark(#000000,#000000);" vertex="1" parent="VEBknGYPYM1EwfaAbbIp-238">
          <mxGeometry width="4" height="4" as="geometry" />
        </mxCell>
        <mxCell id="VEBknGYPYM1EwfaAbbIp-240" value="" style="ellipse;whiteSpace=wrap;html=1;aspect=fixed;strokeColor=light-dark(#000000,#000000);fontColor=light-dark(#000000,#000000);" vertex="1" parent="VEBknGYPYM1EwfaAbbIp-238">
          <mxGeometry x="5" width="4" height="4" as="geometry" />
        </mxCell>
        <mxCell id="VEBknGYPYM1EwfaAbbIp-241" value="" style="ellipse;whiteSpace=wrap;html=1;aspect=fixed;strokeColor=light-dark(#000000,#000000);fontColor=light-dark(#000000,#000000);" vertex="1" parent="VEBknGYPYM1EwfaAbbIp-238">
          <mxGeometry x="10" width="4" height="4" as="geometry" />
        </mxCell>
        <mxCell id="VEBknGYPYM1EwfaAbbIp-25" value="Service" style="text;html=1;align=center;verticalAlign=middle;whiteSpace=wrap;rounded=0;fontSize=11;strokeColor=none;fontColor=light-dark(#000000,#000000);" vertex="1" parent="VEBknGYPYM1EwfaAbbIp-237">
          <mxGeometry x="10" y="26" width="60" height="30" as="geometry" />
        </mxCell>
        <mxCell id="VEBknGYPYM1EwfaAbbIp-243" value="" style="swimlane;whiteSpace=wrap;html=1;startSize=10;fillColor=light-dark(#FFFFFF,#808080);strokeColor=light-dark(#000000,#000000);fontColor=light-dark(#000000,#000000);" vertex="1" parent="1">
          <mxGeometry x="270" y="161" width="80" height="70" as="geometry" />
        </mxCell>
        <mxCell id="VEBknGYPYM1EwfaAbbIp-244" value="" style="group;strokeColor=light-dark(#000000,#000000);fontColor=light-dark(#000000,#000000);" vertex="1" connectable="0" parent="VEBknGYPYM1EwfaAbbIp-243">
          <mxGeometry x="5" y="3" width="14" height="4" as="geometry" />
        </mxCell>
        <mxCell id="VEBknGYPYM1EwfaAbbIp-245" value="" style="ellipse;whiteSpace=wrap;html=1;aspect=fixed;strokeColor=light-dark(#000000,#000000);fontColor=light-dark(#000000,#000000);" vertex="1" parent="VEBknGYPYM1EwfaAbbIp-244">
          <mxGeometry width="4" height="4" as="geometry" />
        </mxCell>
        <mxCell id="VEBknGYPYM1EwfaAbbIp-246" value="" style="ellipse;whiteSpace=wrap;html=1;aspect=fixed;strokeColor=light-dark(#000000,#000000);fontColor=light-dark(#000000,#000000);" vertex="1" parent="VEBknGYPYM1EwfaAbbIp-244">
          <mxGeometry x="5" width="4" height="4" as="geometry" />
        </mxCell>
        <mxCell id="VEBknGYPYM1EwfaAbbIp-247" value="" style="ellipse;whiteSpace=wrap;html=1;aspect=fixed;strokeColor=light-dark(#000000,#000000);fontColor=light-dark(#000000,#000000);" vertex="1" parent="VEBknGYPYM1EwfaAbbIp-244">
          <mxGeometry x="10" width="4" height="4" as="geometry" />
        </mxCell>
        <mxCell id="VEBknGYPYM1EwfaAbbIp-30" value="Therapists" style="text;html=1;align=center;verticalAlign=middle;whiteSpace=wrap;rounded=0;fontSize=11;strokeColor=none;fontColor=light-dark(#000000,#000000);" vertex="1" parent="VEBknGYPYM1EwfaAbbIp-243">
          <mxGeometry x="10" y="20" width="60" height="30" as="geometry" />
        </mxCell>
        <mxCell id="VEBknGYPYM1EwfaAbbIp-381" value="" style="swimlane;whiteSpace=wrap;html=1;startSize=10;fillColor=light-dark(#FFFFFF,#808080);strokeColor=light-dark(#000000,#000000);fontColor=light-dark(#000000,#000000);" vertex="1" parent="1">
          <mxGeometry x="40" y="160" width="80" height="70" as="geometry" />
        </mxCell>
        <mxCell id="VEBknGYPYM1EwfaAbbIp-382" value="" style="group;strokeColor=light-dark(#000000,#000000);fontColor=light-dark(#000000,#000000);" vertex="1" connectable="0" parent="VEBknGYPYM1EwfaAbbIp-381">
          <mxGeometry x="5" y="3" width="14" height="4" as="geometry" />
        </mxCell>
        <mxCell id="VEBknGYPYM1EwfaAbbIp-383" value="" style="ellipse;whiteSpace=wrap;html=1;aspect=fixed;strokeColor=light-dark(#000000,#000000);fontColor=light-dark(#000000,#000000);" vertex="1" parent="VEBknGYPYM1EwfaAbbIp-382">
          <mxGeometry width="4" height="4" as="geometry" />
        </mxCell>
        <mxCell id="VEBknGYPYM1EwfaAbbIp-384" value="" style="ellipse;whiteSpace=wrap;html=1;aspect=fixed;strokeColor=light-dark(#000000,#000000);fontColor=light-dark(#000000,#000000);" vertex="1" parent="VEBknGYPYM1EwfaAbbIp-382">
          <mxGeometry x="5" width="4" height="4" as="geometry" />
        </mxCell>
        <mxCell id="VEBknGYPYM1EwfaAbbIp-385" value="" style="ellipse;whiteSpace=wrap;html=1;aspect=fixed;strokeColor=light-dark(#000000,#000000);fontColor=light-dark(#000000,#000000);" vertex="1" parent="VEBknGYPYM1EwfaAbbIp-382">
          <mxGeometry x="10" width="4" height="4" as="geometry" />
        </mxCell>
        <mxCell id="VEBknGYPYM1EwfaAbbIp-20" value="Home" style="text;html=1;align=center;verticalAlign=middle;whiteSpace=wrap;rounded=0;fontSize=11;strokeColor=none;fontColor=light-dark(#000000,#000000);" vertex="1" parent="VEBknGYPYM1EwfaAbbIp-381">
          <mxGeometry x="10" y="20" width="60" height="30" as="geometry" />
        </mxCell>
        <mxCell id="VEBknGYPYM1EwfaAbbIp-68" value="" style="endArrow=none;html=1;rounded=0;exitX=0.521;exitY=0;exitDx=0;exitDy=0;exitPerimeter=0;strokeColor=light-dark(#000000,#000000);fontColor=light-dark(#000000,#000000);" edge="1" parent="1">
          <mxGeometry width="50" height="50" relative="1" as="geometry">
            <mxPoint x="199.68000000000006" y="161" as="sourcePoint" />
            <mxPoint x="200" y="135" as="targetPoint" />
          </mxGeometry>
        </mxCell>
        <mxCell id="VEBknGYPYM1EwfaAbbIp-102" value="" style="endArrow=none;html=1;rounded=0;exitX=0.521;exitY=0;exitDx=0;exitDy=0;exitPerimeter=0;strokeColor=light-dark(#000000,#000000);fontColor=light-dark(#000000,#000000);" edge="1" parent="1">
          <mxGeometry width="50" height="50" relative="1" as="geometry">
            <mxPoint x="200.68000000000018" y="257" as="sourcePoint" />
            <mxPoint x="201" y="231" as="targetPoint" />
          </mxGeometry>
        </mxCell>
        <mxCell id="VEBknGYPYM1EwfaAbbIp-326" value="" style="endArrow=none;html=1;rounded=0;exitX=0.521;exitY=0;exitDx=0;exitDy=0;exitPerimeter=0;strokeColor=light-dark(#000000,#000000);fontColor=light-dark(#000000,#000000);" edge="1" parent="1">
          <mxGeometry width="50" height="50" relative="1" as="geometry">
            <mxPoint x="660.6800000000002" y="257.5" as="sourcePoint" />
            <mxPoint x="661" y="231.5" as="targetPoint" />
          </mxGeometry>
        </mxCell>
        <mxCell id="VEBknGYPYM1EwfaAbbIp-367" value="" style="endArrow=none;html=1;rounded=0;exitX=0.521;exitY=0;exitDx=0;exitDy=0;exitPerimeter=0;strokeColor=light-dark(#000000,#000000);fontColor=light-dark(#000000,#000000);" edge="1" parent="1">
          <mxGeometry width="50" height="50" relative="1" as="geometry">
            <mxPoint x="1000.6800000000002" y="258.5" as="sourcePoint" />
            <mxPoint x="1001" y="232.5" as="targetPoint" />
          </mxGeometry>
        </mxCell>
        <mxCell id="VEBknGYPYM1EwfaAbbIp-353" value="" style="endArrow=none;html=1;rounded=0;exitX=0.521;exitY=0;exitDx=0;exitDy=0;exitPerimeter=0;strokeColor=light-dark(#000000,#000000);fontColor=light-dark(#000000,#000000);" edge="1" parent="1">
          <mxGeometry width="50" height="50" relative="1" as="geometry">
            <mxPoint x="887.6800000000002" y="256.5" as="sourcePoint" />
            <mxPoint x="888" y="230.5" as="targetPoint" />
          </mxGeometry>
        </mxCell>
        <mxCell id="VEBknGYPYM1EwfaAbbIp-109" value="" style="endArrow=none;html=1;rounded=0;exitX=0.521;exitY=0;exitDx=0;exitDy=0;exitPerimeter=0;strokeColor=light-dark(#000000,#000000);fontColor=light-dark(#000000,#000000);" edge="1" parent="1">
          <mxGeometry width="50" height="50" relative="1" as="geometry">
            <mxPoint x="199.68000000000006" y="353.0000000000001" as="sourcePoint" />
            <mxPoint x="200" y="327" as="targetPoint" />
          </mxGeometry>
        </mxCell>
        <mxCell id="VEBknGYPYM1EwfaAbbIp-325" value="" style="endArrow=none;html=1;rounded=0;exitX=0.521;exitY=0;exitDx=0;exitDy=0;exitPerimeter=0;strokeColor=light-dark(#000000,#000000);fontColor=light-dark(#000000,#000000);" edge="1" parent="1">
          <mxGeometry width="50" height="50" relative="1" as="geometry">
            <mxPoint x="662.6800000000001" y="353.5000000000001" as="sourcePoint" />
            <mxPoint x="663" y="327.5" as="targetPoint" />
          </mxGeometry>
        </mxCell>
        <mxCell id="VEBknGYPYM1EwfaAbbIp-374" value="" style="endArrow=none;html=1;rounded=0;exitX=0.521;exitY=0;exitDx=0;exitDy=0;exitPerimeter=0;strokeColor=light-dark(#000000,#000000);fontColor=light-dark(#000000,#000000);" edge="1" parent="1">
          <mxGeometry width="50" height="50" relative="1" as="geometry">
            <mxPoint x="1000.6800000000001" y="354.5000000000001" as="sourcePoint" />
            <mxPoint x="1001" y="328.5" as="targetPoint" />
          </mxGeometry>
        </mxCell>
        <mxCell id="VEBknGYPYM1EwfaAbbIp-123" value="" style="endArrow=none;html=1;rounded=0;exitX=0.521;exitY=0;exitDx=0;exitDy=0;exitPerimeter=0;strokeColor=light-dark(#000000,#000000);fontColor=light-dark(#000000,#000000);" edge="1" parent="1">
          <mxGeometry width="50" height="50" relative="1" as="geometry">
            <mxPoint x="199.68000000000006" y="545" as="sourcePoint" />
            <mxPoint x="200" y="519" as="targetPoint" />
          </mxGeometry>
        </mxCell>
        <mxCell id="VEBknGYPYM1EwfaAbbIp-316" value="" style="endArrow=none;html=1;rounded=0;exitX=0.521;exitY=0;exitDx=0;exitDy=0;exitPerimeter=0;strokeColor=light-dark(#000000,#000000);fontColor=light-dark(#000000,#000000);" edge="1" parent="1">
          <mxGeometry width="50" height="50" relative="1" as="geometry">
            <mxPoint x="662.6800000000001" y="545.5" as="sourcePoint" />
            <mxPoint x="663" y="519.5" as="targetPoint" />
          </mxGeometry>
        </mxCell>
        <mxCell id="VEBknGYPYM1EwfaAbbIp-137" value="" style="endArrow=none;html=1;rounded=0;exitX=0.521;exitY=0;exitDx=0;exitDy=0;exitPerimeter=0;strokeColor=light-dark(#000000,#000000);fontColor=light-dark(#000000,#000000);" edge="1" parent="1">
          <mxGeometry width="50" height="50" relative="1" as="geometry">
            <mxPoint x="200.68000000000018" y="641" as="sourcePoint" />
            <mxPoint x="201" y="615" as="targetPoint" />
          </mxGeometry>
        </mxCell>
        <mxCell id="VEBknGYPYM1EwfaAbbIp-315" value="" style="endArrow=none;html=1;rounded=0;exitX=0.521;exitY=0;exitDx=0;exitDy=0;exitPerimeter=0;strokeColor=light-dark(#000000,#000000);fontColor=light-dark(#000000,#000000);" edge="1" parent="1">
          <mxGeometry width="50" height="50" relative="1" as="geometry">
            <mxPoint x="663.6800000000002" y="641.5" as="sourcePoint" />
            <mxPoint x="664" y="615.5" as="targetPoint" />
          </mxGeometry>
        </mxCell>
        <mxCell id="VEBknGYPYM1EwfaAbbIp-144" value="" style="endArrow=none;html=1;rounded=0;exitX=0.521;exitY=0;exitDx=0;exitDy=0;exitPerimeter=0;strokeColor=light-dark(#000000,#000000);fontColor=light-dark(#000000,#000000);" edge="1" parent="1">
          <mxGeometry width="50" height="50" relative="1" as="geometry">
            <mxPoint x="546.68" y="352" as="sourcePoint" />
            <mxPoint x="547" y="327" as="targetPoint" />
          </mxGeometry>
        </mxCell>
        <mxCell id="VEBknGYPYM1EwfaAbbIp-279" value="" style="swimlane;whiteSpace=wrap;html=1;startSize=10;fillColor=light-dark(#FFFFFF,#808080);strokeColor=light-dark(#000000,#000000);fontColor=light-dark(#000000,#000000);" vertex="1" parent="1">
          <mxGeometry x="505" y="352" width="80" height="70" as="geometry" />
        </mxCell>
        <mxCell id="VEBknGYPYM1EwfaAbbIp-280" value="" style="group;strokeColor=light-dark(#000000,#000000);fontColor=light-dark(#000000,#000000);" vertex="1" connectable="0" parent="VEBknGYPYM1EwfaAbbIp-279">
          <mxGeometry x="5" y="3" width="14" height="4" as="geometry" />
        </mxCell>
        <mxCell id="VEBknGYPYM1EwfaAbbIp-281" value="" style="ellipse;whiteSpace=wrap;html=1;aspect=fixed;strokeColor=light-dark(#000000,#000000);fontColor=light-dark(#000000,#000000);" vertex="1" parent="VEBknGYPYM1EwfaAbbIp-280">
          <mxGeometry width="4" height="4" as="geometry" />
        </mxCell>
        <mxCell id="VEBknGYPYM1EwfaAbbIp-282" value="" style="ellipse;whiteSpace=wrap;html=1;aspect=fixed;strokeColor=light-dark(#000000,#000000);fontColor=light-dark(#000000,#000000);" vertex="1" parent="VEBknGYPYM1EwfaAbbIp-280">
          <mxGeometry x="5" width="4" height="4" as="geometry" />
        </mxCell>
        <mxCell id="VEBknGYPYM1EwfaAbbIp-283" value="" style="ellipse;whiteSpace=wrap;html=1;aspect=fixed;strokeColor=light-dark(#000000,#000000);fontColor=light-dark(#000000,#000000);" vertex="1" parent="VEBknGYPYM1EwfaAbbIp-280">
          <mxGeometry x="10" width="4" height="4" as="geometry" />
        </mxCell>
        <mxCell id="VEBknGYPYM1EwfaAbbIp-143" value="Therapist Dashboard" style="text;html=1;align=center;verticalAlign=middle;whiteSpace=wrap;rounded=0;fontSize=11;strokeColor=none;fontColor=light-dark(#000000,#000000);" vertex="1" parent="VEBknGYPYM1EwfaAbbIp-279">
          <mxGeometry x="10" y="21" width="60" height="30" as="geometry" />
        </mxCell>
        <mxCell id="VEBknGYPYM1EwfaAbbIp-130" value="" style="endArrow=none;html=1;rounded=0;exitX=0.521;exitY=0;exitDx=0;exitDy=0;exitPerimeter=0;strokeColor=light-dark(#000000,#000000);fontColor=light-dark(#000000,#000000);" edge="1" parent="1">
          <mxGeometry width="50" height="50" relative="1" as="geometry">
            <mxPoint x="546.68" y="257" as="sourcePoint" />
            <mxPoint x="547" y="231" as="targetPoint" />
          </mxGeometry>
        </mxCell>
        <mxCell id="VEBknGYPYM1EwfaAbbIp-285" value="" style="swimlane;whiteSpace=wrap;html=1;startSize=10;fillColor=light-dark(#FFFFFF,#808080);strokeColor=light-dark(#000000,#000000);fontColor=light-dark(#000000,#000000);" vertex="1" parent="1">
          <mxGeometry x="505" y="257" width="80" height="70" as="geometry" />
        </mxCell>
        <mxCell id="VEBknGYPYM1EwfaAbbIp-286" value="" style="group;strokeColor=light-dark(#000000,#000000);fontColor=light-dark(#000000,#000000);" vertex="1" connectable="0" parent="VEBknGYPYM1EwfaAbbIp-285">
          <mxGeometry x="5" y="3" width="14" height="4" as="geometry" />
        </mxCell>
        <mxCell id="VEBknGYPYM1EwfaAbbIp-287" value="" style="ellipse;whiteSpace=wrap;html=1;aspect=fixed;strokeColor=light-dark(#000000,#000000);fontColor=light-dark(#000000,#000000);" vertex="1" parent="VEBknGYPYM1EwfaAbbIp-286">
          <mxGeometry width="4" height="4" as="geometry" />
        </mxCell>
        <mxCell id="VEBknGYPYM1EwfaAbbIp-288" value="" style="ellipse;whiteSpace=wrap;html=1;aspect=fixed;strokeColor=light-dark(#000000,#000000);fontColor=light-dark(#000000,#000000);" vertex="1" parent="VEBknGYPYM1EwfaAbbIp-286">
          <mxGeometry x="5" width="4" height="4" as="geometry" />
        </mxCell>
        <mxCell id="VEBknGYPYM1EwfaAbbIp-289" value="" style="ellipse;whiteSpace=wrap;html=1;aspect=fixed;strokeColor=light-dark(#000000,#000000);fontColor=light-dark(#000000,#000000);" vertex="1" parent="VEBknGYPYM1EwfaAbbIp-286">
          <mxGeometry x="10" width="4" height="4" as="geometry" />
        </mxCell>
        <mxCell id="VEBknGYPYM1EwfaAbbIp-129" value="Client Dashboard&amp;nbsp;" style="text;html=1;align=center;verticalAlign=middle;whiteSpace=wrap;rounded=0;fontSize=11;strokeColor=none;fontColor=light-dark(#000000,#000000);" vertex="1" parent="VEBknGYPYM1EwfaAbbIp-285">
          <mxGeometry x="10" y="20" width="60" height="30" as="geometry" />
        </mxCell>
        <mxCell id="VEBknGYPYM1EwfaAbbIp-345" value="" style="group;strokeColor=light-dark(#000000,#000000);fontColor=light-dark(#000000,#000000);" vertex="1" connectable="0" parent="1">
          <mxGeometry x="621" y="161" width="80" height="70" as="geometry" />
        </mxCell>
        <mxCell id="VEBknGYPYM1EwfaAbbIp-36" value="" style="swimlane;whiteSpace=wrap;html=1;startSize=9;fillColor=light-dark(#FFFFFF,#808080);strokeColor=light-dark(#000000,#000000);fontColor=light-dark(#000000,#000000);" vertex="1" parent="VEBknGYPYM1EwfaAbbIp-345">
          <mxGeometry width="80" height="70" as="geometry" />
        </mxCell>
        <mxCell id="VEBknGYPYM1EwfaAbbIp-40" value="Gallary" style="text;html=1;align=center;verticalAlign=middle;whiteSpace=wrap;rounded=0;fontSize=11;strokeColor=none;fontColor=light-dark(#000000,#000000);" vertex="1" parent="VEBknGYPYM1EwfaAbbIp-36">
          <mxGeometry x="10" y="27" width="60" height="30" as="geometry" />
        </mxCell>
        <mxCell id="VEBknGYPYM1EwfaAbbIp-209" value="" style="group;strokeColor=light-dark(#000000,#000000);fontColor=light-dark(#000000,#000000);" vertex="1" connectable="0" parent="VEBknGYPYM1EwfaAbbIp-345">
          <mxGeometry x="4" y="3" width="14" height="4" as="geometry" />
        </mxCell>
        <mxCell id="VEBknGYPYM1EwfaAbbIp-210" value="" style="ellipse;whiteSpace=wrap;html=1;aspect=fixed;strokeColor=light-dark(#000000,#000000);fontColor=light-dark(#000000,#000000);" vertex="1" parent="VEBknGYPYM1EwfaAbbIp-209">
          <mxGeometry width="4" height="4" as="geometry" />
        </mxCell>
        <mxCell id="VEBknGYPYM1EwfaAbbIp-211" value="" style="ellipse;whiteSpace=wrap;html=1;aspect=fixed;strokeColor=light-dark(#000000,#000000);fontColor=light-dark(#000000,#000000);" vertex="1" parent="VEBknGYPYM1EwfaAbbIp-209">
          <mxGeometry x="5" width="4" height="4" as="geometry" />
        </mxCell>
        <mxCell id="VEBknGYPYM1EwfaAbbIp-212" value="" style="ellipse;whiteSpace=wrap;html=1;aspect=fixed;strokeColor=light-dark(#000000,#000000);fontColor=light-dark(#000000,#000000);" vertex="1" parent="VEBknGYPYM1EwfaAbbIp-209">
          <mxGeometry x="10" width="4" height="4" as="geometry" />
        </mxCell>
        <mxCell id="VEBknGYPYM1EwfaAbbIp-360" value="" style="group;strokeColor=light-dark(#000000,#000000);fontColor=light-dark(#000000,#000000);" vertex="1" connectable="0" parent="1">
          <mxGeometry x="961" y="162" width="80" height="70" as="geometry" />
        </mxCell>
        <mxCell id="VEBknGYPYM1EwfaAbbIp-361" value="" style="swimlane;whiteSpace=wrap;html=1;startSize=9;fillColor=light-dark(#FFFFFF,#808080);strokeColor=light-dark(#000000,#000000);fontColor=light-dark(#000000,#000000);" vertex="1" parent="VEBknGYPYM1EwfaAbbIp-360">
          <mxGeometry width="80" height="70" as="geometry" />
        </mxCell>
        <mxCell id="VEBknGYPYM1EwfaAbbIp-61" value="Register / Login" style="text;html=1;align=center;verticalAlign=middle;whiteSpace=wrap;rounded=0;fontSize=11;strokeColor=none;fontColor=light-dark(#000000,#000000);" vertex="1" parent="VEBknGYPYM1EwfaAbbIp-361">
          <mxGeometry x="11" y="26" width="60" height="30" as="geometry" />
        </mxCell>
        <mxCell id="VEBknGYPYM1EwfaAbbIp-363" value="" style="group;strokeColor=light-dark(#000000,#000000);fontColor=light-dark(#000000,#000000);" vertex="1" connectable="0" parent="VEBknGYPYM1EwfaAbbIp-360">
          <mxGeometry x="4" y="3" width="14" height="4" as="geometry" />
        </mxCell>
        <mxCell id="VEBknGYPYM1EwfaAbbIp-364" value="" style="ellipse;whiteSpace=wrap;html=1;aspect=fixed;strokeColor=light-dark(#000000,#000000);fontColor=light-dark(#000000,#000000);" vertex="1" parent="VEBknGYPYM1EwfaAbbIp-363">
          <mxGeometry width="4" height="4" as="geometry" />
        </mxCell>
        <mxCell id="VEBknGYPYM1EwfaAbbIp-365" value="" style="ellipse;whiteSpace=wrap;html=1;aspect=fixed;strokeColor=light-dark(#000000,#000000);fontColor=light-dark(#000000,#000000);" vertex="1" parent="VEBknGYPYM1EwfaAbbIp-363">
          <mxGeometry x="5" width="4" height="4" as="geometry" />
        </mxCell>
        <mxCell id="VEBknGYPYM1EwfaAbbIp-366" value="" style="ellipse;whiteSpace=wrap;html=1;aspect=fixed;strokeColor=light-dark(#000000,#000000);fontColor=light-dark(#000000,#000000);" vertex="1" parent="VEBknGYPYM1EwfaAbbIp-363">
          <mxGeometry x="10" width="4" height="4" as="geometry" />
        </mxCell>
        <mxCell id="VEBknGYPYM1EwfaAbbIp-346" value="" style="group;strokeColor=light-dark(#000000,#000000);fontColor=light-dark(#000000,#000000);" vertex="1" connectable="0" parent="1">
          <mxGeometry x="848" y="160" width="80" height="70" as="geometry" />
        </mxCell>
        <mxCell id="VEBknGYPYM1EwfaAbbIp-347" value="" style="swimlane;whiteSpace=wrap;html=1;startSize=9;fillColor=light-dark(#FFFFFF,#808080);strokeColor=light-dark(#000000,#000000);fontColor=light-dark(#000000,#000000);" vertex="1" parent="VEBknGYPYM1EwfaAbbIp-346">
          <mxGeometry width="80" height="70" as="geometry" />
        </mxCell>
        <mxCell id="VEBknGYPYM1EwfaAbbIp-45" value="Contact Us" style="text;html=1;align=center;verticalAlign=middle;whiteSpace=wrap;rounded=0;fontSize=11;strokeColor=none;fontColor=light-dark(#000000,#000000);" vertex="1" parent="VEBknGYPYM1EwfaAbbIp-347">
          <mxGeometry x="11" y="20" width="60" height="30" as="geometry" />
        </mxCell>
        <mxCell id="VEBknGYPYM1EwfaAbbIp-349" value="" style="group;strokeColor=light-dark(#000000,#000000);fontColor=light-dark(#000000,#000000);" vertex="1" connectable="0" parent="VEBknGYPYM1EwfaAbbIp-346">
          <mxGeometry x="4" y="3" width="14" height="4" as="geometry" />
        </mxCell>
        <mxCell id="VEBknGYPYM1EwfaAbbIp-350" value="" style="ellipse;whiteSpace=wrap;html=1;aspect=fixed;strokeColor=light-dark(#000000,#000000);fontColor=light-dark(#000000,#000000);" vertex="1" parent="VEBknGYPYM1EwfaAbbIp-349">
          <mxGeometry width="4" height="4" as="geometry" />
        </mxCell>
        <mxCell id="VEBknGYPYM1EwfaAbbIp-351" value="" style="ellipse;whiteSpace=wrap;html=1;aspect=fixed;strokeColor=light-dark(#000000,#000000);fontColor=light-dark(#000000,#000000);" vertex="1" parent="VEBknGYPYM1EwfaAbbIp-349">
          <mxGeometry x="5" width="4" height="4" as="geometry" />
        </mxCell>
        <mxCell id="VEBknGYPYM1EwfaAbbIp-352" value="" style="ellipse;whiteSpace=wrap;html=1;aspect=fixed;strokeColor=light-dark(#000000,#000000);fontColor=light-dark(#000000,#000000);" vertex="1" parent="VEBknGYPYM1EwfaAbbIp-349">
          <mxGeometry x="10" width="4" height="4" as="geometry" />
        </mxCell>
        <mxCell id="VEBknGYPYM1EwfaAbbIp-151" value="" style="endArrow=none;html=1;rounded=0;exitX=0.521;exitY=0;exitDx=0;exitDy=0;exitPerimeter=0;strokeColor=light-dark(#000000,#000000);fontColor=light-dark(#000000,#000000);" edge="1" parent="1">
          <mxGeometry width="50" height="50" relative="1" as="geometry">
            <mxPoint x="546.68" y="448.0000000000001" as="sourcePoint" />
            <mxPoint x="547" y="422" as="targetPoint" />
          </mxGeometry>
        </mxCell>
        <mxCell id="VEBknGYPYM1EwfaAbbIp-273" value="" style="swimlane;whiteSpace=wrap;html=1;startSize=10;fillColor=light-dark(#FFFFFF,#808080);strokeColor=light-dark(#000000,#000000);fontColor=light-dark(#000000,#000000);" vertex="1" parent="1">
          <mxGeometry x="505" y="448" width="80" height="70" as="geometry" />
        </mxCell>
        <mxCell id="VEBknGYPYM1EwfaAbbIp-274" value="" style="group;strokeColor=light-dark(#000000,#000000);fontColor=light-dark(#000000,#000000);" vertex="1" connectable="0" parent="VEBknGYPYM1EwfaAbbIp-273">
          <mxGeometry x="5" y="3" width="14" height="4" as="geometry" />
        </mxCell>
        <mxCell id="VEBknGYPYM1EwfaAbbIp-275" value="" style="ellipse;whiteSpace=wrap;html=1;aspect=fixed;strokeColor=light-dark(#000000,#000000);fontColor=light-dark(#000000,#000000);" vertex="1" parent="VEBknGYPYM1EwfaAbbIp-274">
          <mxGeometry width="4" height="4" as="geometry" />
        </mxCell>
        <mxCell id="VEBknGYPYM1EwfaAbbIp-276" value="" style="ellipse;whiteSpace=wrap;html=1;aspect=fixed;strokeColor=light-dark(#000000,#000000);fontColor=light-dark(#000000,#000000);" vertex="1" parent="VEBknGYPYM1EwfaAbbIp-274">
          <mxGeometry x="5" width="4" height="4" as="geometry" />
        </mxCell>
        <mxCell id="VEBknGYPYM1EwfaAbbIp-277" value="" style="ellipse;whiteSpace=wrap;html=1;aspect=fixed;strokeColor=light-dark(#000000,#000000);fontColor=light-dark(#000000,#000000);" vertex="1" parent="VEBknGYPYM1EwfaAbbIp-274">
          <mxGeometry x="10" width="4" height="4" as="geometry" />
        </mxCell>
        <mxCell id="VEBknGYPYM1EwfaAbbIp-150" value="Admin Dashboard" style="text;html=1;align=center;verticalAlign=middle;whiteSpace=wrap;rounded=0;fontSize=11;strokeColor=none;fontColor=light-dark(#000000,#000000);" vertex="1" parent="VEBknGYPYM1EwfaAbbIp-273">
          <mxGeometry x="15" y="21" width="60" height="30" as="geometry" />
        </mxCell>
        <mxCell id="VEBknGYPYM1EwfaAbbIp-116" value="" style="endArrow=none;html=1;rounded=0;exitX=0.521;exitY=0;exitDx=0;exitDy=0;exitPerimeter=0;strokeColor=light-dark(#000000,#000000);fontColor=light-dark(#000000,#000000);" edge="1" parent="1">
          <mxGeometry width="50" height="50" relative="1" as="geometry">
            <mxPoint x="199.68000000000006" y="449" as="sourcePoint" />
            <mxPoint x="200" y="423" as="targetPoint" />
          </mxGeometry>
        </mxCell>
        <mxCell id="VEBknGYPYM1EwfaAbbIp-249" value="" style="swimlane;whiteSpace=wrap;html=1;startSize=10;fillColor=light-dark(#FFFFFF,#808080);strokeColor=light-dark(#000000,#000000);fontColor=light-dark(#000000,#000000);" vertex="1" parent="1">
          <mxGeometry x="159" y="449" width="80" height="70" as="geometry" />
        </mxCell>
        <mxCell id="VEBknGYPYM1EwfaAbbIp-250" value="" style="group;strokeColor=light-dark(#000000,#000000);fontColor=light-dark(#000000,#000000);" vertex="1" connectable="0" parent="VEBknGYPYM1EwfaAbbIp-249">
          <mxGeometry x="5" y="3" width="14" height="4" as="geometry" />
        </mxCell>
        <mxCell id="VEBknGYPYM1EwfaAbbIp-251" value="" style="ellipse;whiteSpace=wrap;html=1;aspect=fixed;strokeColor=light-dark(#000000,#000000);fontColor=light-dark(#000000,#000000);" vertex="1" parent="VEBknGYPYM1EwfaAbbIp-250">
          <mxGeometry width="4" height="4" as="geometry" />
        </mxCell>
        <mxCell id="VEBknGYPYM1EwfaAbbIp-252" value="" style="ellipse;whiteSpace=wrap;html=1;aspect=fixed;strokeColor=light-dark(#000000,#000000);fontColor=light-dark(#000000,#000000);" vertex="1" parent="VEBknGYPYM1EwfaAbbIp-250">
          <mxGeometry x="5" width="4" height="4" as="geometry" />
        </mxCell>
        <mxCell id="VEBknGYPYM1EwfaAbbIp-253" value="" style="ellipse;whiteSpace=wrap;html=1;aspect=fixed;strokeColor=light-dark(#000000,#000000);fontColor=light-dark(#000000,#000000);" vertex="1" parent="VEBknGYPYM1EwfaAbbIp-250">
          <mxGeometry x="10" width="4" height="4" as="geometry" />
        </mxCell>
        <mxCell id="VEBknGYPYM1EwfaAbbIp-115" value="Nutrition and Diet Consultation" style="text;html=1;align=center;verticalAlign=middle;whiteSpace=wrap;rounded=0;fontSize=11;strokeColor=none;fontColor=light-dark(#000000,#000000);" vertex="1" parent="VEBknGYPYM1EwfaAbbIp-249">
          <mxGeometry x="10" y="22" width="60" height="30" as="geometry" />
        </mxCell>
        <mxCell id="VEBknGYPYM1EwfaAbbIp-318" value="" style="endArrow=none;html=1;rounded=0;exitX=0.521;exitY=0;exitDx=0;exitDy=0;exitPerimeter=0;strokeColor=light-dark(#000000,#000000);fontColor=light-dark(#000000,#000000);" edge="1" parent="1">
          <mxGeometry width="50" height="50" relative="1" as="geometry">
            <mxPoint x="662.6800000000001" y="449.5" as="sourcePoint" />
            <mxPoint x="663" y="423.5" as="targetPoint" />
          </mxGeometry>
        </mxCell>
        <mxCell id="VEBknGYPYM1EwfaAbbIp-319" value="" style="swimlane;whiteSpace=wrap;html=1;startSize=10;fillColor=light-dark(#FFFFFF,#808080);strokeColor=light-dark(#000000,#000000);fontColor=light-dark(#000000,#000000);" vertex="1" parent="1">
          <mxGeometry x="622" y="449.5" width="80" height="70" as="geometry" />
        </mxCell>
        <mxCell id="VEBknGYPYM1EwfaAbbIp-320" value="" style="group;strokeColor=light-dark(#000000,#000000);fontColor=light-dark(#000000,#000000);" vertex="1" connectable="0" parent="VEBknGYPYM1EwfaAbbIp-319">
          <mxGeometry x="5" y="3" width="14" height="4" as="geometry" />
        </mxCell>
        <mxCell id="VEBknGYPYM1EwfaAbbIp-321" value="" style="ellipse;whiteSpace=wrap;html=1;aspect=fixed;strokeColor=light-dark(#000000,#000000);fontColor=light-dark(#000000,#000000);" vertex="1" parent="VEBknGYPYM1EwfaAbbIp-320">
          <mxGeometry width="4" height="4" as="geometry" />
        </mxCell>
        <mxCell id="VEBknGYPYM1EwfaAbbIp-322" value="" style="ellipse;whiteSpace=wrap;html=1;aspect=fixed;strokeColor=light-dark(#000000,#000000);fontColor=light-dark(#000000,#000000);" vertex="1" parent="VEBknGYPYM1EwfaAbbIp-320">
          <mxGeometry x="5" width="4" height="4" as="geometry" />
        </mxCell>
        <mxCell id="VEBknGYPYM1EwfaAbbIp-323" value="" style="ellipse;whiteSpace=wrap;html=1;aspect=fixed;strokeColor=light-dark(#000000,#000000);fontColor=light-dark(#000000,#000000);" vertex="1" parent="VEBknGYPYM1EwfaAbbIp-320">
          <mxGeometry x="10" width="4" height="4" as="geometry" />
        </mxCell>
        <mxCell id="VEBknGYPYM1EwfaAbbIp-324" value="Nutrition and Diet Consultation" style="text;html=1;align=center;verticalAlign=middle;whiteSpace=wrap;rounded=0;fontSize=11;strokeColor=none;fontColor=light-dark(#000000,#000000);" vertex="1" parent="VEBknGYPYM1EwfaAbbIp-319">
          <mxGeometry x="10" y="22" width="60" height="30" as="geometry" />
        </mxCell>
      </root>
    </mxGraphModel>
  </diagram>
</mxfile>
